# xmcd CD database file
#
# Track frame offsets:
#	182
#	14652
#	28240
#	45257
#	60070
#	71287
#	89112
#	113487
#	124465
#	134865
#	151415
#	164570
#	179607
#	193245
#	206190
#	222190
#	236587
#	253950
#
# Disc length: 3589 seconds
#
# Revision: 2
# Processed by: cddbd v1.5.2PL0 Copyright (c) Steve Scherf et al.
# Submitted via: CDex 1.79
#
DISCID=160e0312
DTITLE=Ricky Skaggs - The Country Store Collection
DYEAR=1986
DGENRE=Country
TTITLE0=Don't Get Above Your Raising
TTITLE1=Crying My Heart Out Over You
TTITLE2=Sweet Temptation
TTITLE3=Heartbroke
TTITLE4=You May See Me Walkin'
TTITLE5=Don't Let Your Sweet Love Die
TTITLE6=One Way Rider
TTITLE7=Uncle Pen
TTITLE8=I Don't Care
TTITLE9=A Wound Time Can't Erase
TTITLE10=Low And Lonely
TTITLE11=Don't Cheat In Your Home Town
TTITLE12=I Wouldn't Change You If I Could
TTITLE13=So Round, So Firm, So Fully Packed
TTITLE14=Honey (Open That Door)
TTITLE15=I Wonder If I Care As Much
TTITLE16=Country Boy
TTITLE17=Window Up Above
EXTD=YEAR: 1986
EXTT0=
EXTT1=
EXTT2=
EXTT3=
EXTT4=
EXTT5=
EXTT6=
EXTT7=
EXTT8=
EXTT9=
EXTT10=
EXTT11=
EXTT12=
EXTT13=
EXTT14=
EXTT15=
EXTT16=
EXTT17=
PLAYORDER=
